<mxfile host="app.diagrams.net" modified="2023-05-27T13:46:55.734Z" agent="Mozilla/5.0 (Macintosh; Intel Mac OS X 10_15_7) AppleWebKit/605.1.15 (KHTML, like Gecko) Version/15.1 Safari/605.1.15" version="21.3.4" etag="607k82OFtOFzLbvAwly7" type="github">
  <diagram name="Page-1" id="A6lHa6DNV67zkT5JCMv9">
    <mxGraphModel>
      <root>
        <mxCell id="0" />
        <mxCell id="1" parent="0" />
      </root>
    </mxGraphModel>
  </diagram>
</mxfile>
